<?xml version="1.0" encoding="utf-8"?>
<!-- Generator: Adobe Illustrator 18.0.0, SVG Export Plug-In . SVG Version: 6.00 Build 0)  -->
<!DOCTYPE svg PUBLIC "-//W3C//DTD SVG 1.1//EN" "http://www.w3.org/Graphics/SVG/1.1/DTD/svg11.dtd">
<svg version="1.1" id="Layer_1" xmlns="http://www.w3.org/2000/svg" xmlns:xlink="http://www.w3.org/1999/xlink" x="0px" y="0px"
	 viewBox="0 0 1920 1080" enable-background="new 0 0 1920 1080" xml:space="preserve">
<path fill-rule="evenodd" clip-rule="evenodd" fill="#FFCB05" d="M937.1,490.5c7.6,6,18.8,12.3,25.6,26.2c1.6-3.2,3.8-6.5,6.6-9.7
	c7.9-8.8,11.1-9.1,10.4-7c-0.2,0.5-0.8,1-1.3,1.6c-2,2.1-9.4,8.9-13.5,20.3c1.4,3.9,2.5,8.4,3.1,13.5c3.5-3.1,8.5-6.4,15.5-9.4
	c0.4-1.4,0.7-2.9,0.9-4.3c2.7-16.6-1.9-25.3,0.4-25.1c2.8,0.3,4,12.1,4.1,14c0.3,4.7-0.2,9.5-1.3,14c10.2-2.3,22.1,1.1,22.1,1.1
	s0.7,1.7-2.6,2.2c-2.5,0.4-11.5-1.1-21,1.7c-1.2,3.3-2.6,6.3-4.4,9c-3.3,5-7.5,9.1-12.4,9.5c6.2-4.5,10.1-10.6,12.5-17
	c-1.2,0.5-2.5,1.2-3.7,1.9c-4.4,2.6-7.5,5.1-9.8,7.3c0.1,1,0.1,1.9,0.1,2.9c-0.1,2.3-1.4,3.6-2.6,3.6c0,0-0.1-1.6-0.2-3.7
	c-2,2.3-3,4.1-3.8,4.8c-1,0.9-2.2,1.3-2.4,1.3c-0.2,0-0.2-0.1-0.2-0.1s0.1-2,1.6-5.1c-0.7-0.2-1.5-0.9-2-3.1
	c-0.7-3-1.4-10.7,1.8-19.7c-3.6-7.8-10.2-17-22.3-24.3c-2.6,10.9-1.3,21.6,1.8,30.4c0.3,0.9,0.7,1.8,1,2.7c7.4,3,14.2,7.7,17.2,14.9
	c0,0-4.5-5.6-15.2-10.5c3.1,6.2,6.8,11,9.7,13.5c7.4,6.4,4,7.5-2,8.2c-6.1,0.7-24.3,3.8-37.5-15.6c-4.8-7.1-4.9-9.8-4-10.1
	c1.6-0.5,6.3,5.6,8.6,8c3.8,4,16.2,15.3,32.9,13.5c-7.3-5-12.7-12.3-15.8-20.6c-0.9-0.3-1.8-0.5-2.7-0.8c-8.3-2.3-14.7-2.9-18.9-3.3
	c-5.1-0.5-6.9-0.5-6.9-0.5s1.3-2.9,9.9-2.2c3.6,0.3,10.2,1,17.2,2.9C930.3,515.5,931.2,501.9,937.1,490.5L937.1,490.5z M999.8,564.1
	l0.1,4.1c0,0,31.2,0.2,35-0.2c3.8-0.3,8-1.4,9.7-3.2c0,0-3.8,0-6.3-0.1C1035.7,564.7,999.8,564.1,999.8,564.1L999.8,564.1z
	 M963.7,562.3l0-2.7l49.9,0.1v1.3L963.7,562.3L963.7,562.3z M917.2,570.3c0,0,0-0.9,2.3-1.2c2.3-0.2,31.1-2.9,40.8-3
	c9.6-0.1,15.8,0.4,16,3.1c0.2,2.7-6.3,6.3-8.7,8.5c-2.4,2.2-5.5,4.3-4.9,5.7c0.4,0.9,3.2,0.9,5.7,1.1c7.1,0.6,21.9,2.9,21.9,2.9
	s-24.4,2-32.5,1.8c-8.1-0.2-11-3.4-7.6-6.4c3.4-3,10.4-6,11.6-8.6c1.2-2.6-3.7-3.8-10.1-3.2c-6.4,0.6-27.3,0.9-31,0.4
	C916.9,571.1,917.3,570.6,917.2,570.3L917.2,570.3z M874.9,566.3l0.4-2.6c0,0,31.8,0.1,38.8,1.1c7,1,5.9,1.4,5.9,1.4L874.9,566.3
	L874.9,566.3z M892.6,563.1l1.2-2.1l47.6,0.8l-1.4,2.2L892.6,563.1L892.6,563.1z M881.6,558.9l-0.1-2h50l0,2.1L881.6,558.9
	L881.6,558.9z M1010.2,532.8c0,0,1.1-1.9,1.8-1.9c0.6,0,1,0.6,0.5,2.9c-0.5,2.3-5.8,14.4-22.7,20.7c-18.3,6.7-29.6-2.6-29.6-2.6
	l0.6-1.1c0,0,12.5,3.6,26.8-1.3C994.9,547,1003.8,541.4,1010.2,532.8L1010.2,532.8z M965.2,537.9c-0.1-0.6-0.1-1.2-0.2-1.8
	c-0.2-1.5-0.6-4.6-1.9-8.5c-1,4.2-1.4,9-1.1,14.3l0,0.2C962.9,540.8,963.9,539.4,965.2,537.9L965.2,537.9z"/>
</svg>
